<?xml version="1.0" encoding="utf-8"?>
<!-- Generator: Adobe Illustrator 22.1.0, SVG Export Plug-In . SVG Version: 6.00 Build 0)  -->
<svg version="1.1" id="Layer_1" xmlns="http://www.w3.org/2000/svg" xmlns:xlink="http://www.w3.org/1999/xlink" x="0px" y="0px"
	 viewBox="0 0 839 100" style="enable-background:new 0 0 839 100;" xml:space="preserve">
<style type="text/css">
	.st0{fill:#0C1227;}
</style>
<g>
	<path class="st0" d="M279,1h24.2c10.1,0,18.7,0.9,26,2.8c7.2,1.9,13.3,4.9,18.1,9c5.6,4.7,9.7,10.1,12.5,16.2
		c2.8,6.1,4.2,12.8,4.2,20.1c0,6.9-1.3,13.4-3.8,19.4c-2.5,6.1-6.2,11.4-11,15.9c-4.8,4.5-10.7,8.1-17.8,10.7
		c-7.1,2.6-15.1,3.9-24.2,3.9H279V1z"/>
	<path class="st0" d="M448.8,38.2h50.9v22.9h-50.9 M448.8,1h68.1V24h-68.1 M516.8,76V99h-68.1V76"/>
	<path class="st0" d="M0,0h24.2c10.1,0,18.7,0.9,26,2.8c7.2,1.9,13.3,4.9,18.1,9C73.8,16.5,78,21.9,80.8,28C83.6,34.1,85,40.8,85,48
		c0,6.9-1.3,13.4-3.8,19.4c-2.5,6.1-6.2,11.4-11,15.9c-4.8,4.5-10.7,8.1-17.8,10.7c-7.1,2.6-15.1,3.9-24.2,3.9H0V0z"/>
	<path class="st0" d="M213.7,2.1l-35,51.4V100h-22.3V55.1l-36.2-53"/>
	<path class="st0" d="M444.6,1l-35,51.4V99h-22.3V54L351.1,1"/>
	<path class="st0" d="M93.5,100V2.1h20.6V100"/>
	<path class="st0" d="M584.7,2.2H601v90.5h48.6V99h-64.9V2.2z"/>
	<path class="st0" d="M706.1,0l45.5,99h-16.5l-14.8-32.3h-41.4L663.6,99h-8.2l46.7-99H706.1z M681.8,60.4h35.6l-17.6-38.2
		L681.8,60.4z"/>
	<path class="st0" d="M760.1,2.2h39c5.1,0,9.8,0.6,14.1,1.7c4.3,1.1,8,2.8,11.1,4.9c3.1,2.1,5.5,4.6,7.2,7.5
		c1.7,2.9,2.6,6.1,2.6,9.7c0,2.6-0.3,5-0.8,7.1c-0.5,2.1-1.5,4-2.9,5.8c-1.4,1.8-3.2,3.4-5.4,5c-2.3,1.6-5.1,3.2-8.5,4.8V49
		c3.4,0.5,6.5,1.5,9.3,2.8c2.8,1.3,5.2,3,7.2,5c2,2,3.5,4.4,4.6,7.1c1.1,2.7,1.6,5.6,1.6,8.9c0,3.6-0.8,7.1-2.4,10.3
		c-1.6,3.2-3.9,6-6.8,8.3c-2.9,2.3-6.5,4.2-10.7,5.6c-4.2,1.4-8.8,2-13.9,2h-45.1V2.2z M776.3,45.8H797c3.3,0,6.2-0.5,8.7-1.4
		c2.5-0.9,4.7-2.2,6.4-3.8c1.7-1.6,3.1-3.6,4-5.8c0.9-2.2,1.3-4.7,1.3-7.3c0-2.8-0.5-5.4-1.6-7.7c-1.1-2.3-2.7-4.3-5-5.9
		c-2.3-1.6-5.1-2.9-8.6-3.8c-3.5-0.9-7.7-1.3-12.5-1.3h-13.4V45.8z M776.3,91.8h17.6c4.7,0,8.8-0.4,12.3-1.3
		c3.5-0.9,6.3-2.2,8.6-3.8c2.3-1.6,3.9-3.6,5-5.8c1.1-2.3,1.6-4.8,1.6-7.6c0-3-0.5-5.9-1.5-8.5c-1-2.6-2.6-4.9-4.8-6.8
		c-2.2-1.9-5.1-3.5-8.7-4.6c-3.6-1.1-7.9-1.7-13.1-1.7h-17.1V91.8z"/>
</g>
</svg>
